<svg width="80" height="80" viewBox="0 0 80 80" fill="none" xmlns="http://www.w3.org/2000/svg">
<path d="M79.9109 20.9195L70.5656 52.9367L67.8 62.4023H12.2L9.43433 52.9367L0.0890164 20.9195C-0.0250862 20.529 -0.0251154 20.114 0.0889322 19.7235C0.20298 19.3329 0.426346 18.9832 0.732678 18.7154C1.03901 18.4477 1.41553 18.2732 1.81781 18.2124C2.22009 18.1517 2.63136 18.2073 3.00308 18.3726L23.375 27.4195L38.2437 5.89608C38.44 5.61182 38.7024 5.37947 39.0083 5.21896C39.3142 5.05846 39.6545 4.97461 40 4.97461C40.3454 4.97461 40.6857 5.05846 40.9916 5.21896C41.2975 5.37947 41.5599 5.61182 41.7562 5.89608L56.625 27.4195L76.9968 18.3726C77.3686 18.208 77.7796 18.1529 78.1816 18.2139C78.5835 18.275 78.9597 18.4495 79.2658 18.7171C79.5719 18.9846 79.7953 19.334 79.9096 19.7242C80.0238 20.1144 80.0243 20.5291 79.9109 20.9195Z" fill="#FFB000"/>
<path d="M70.5658 52.9395L67.8002 62.4051H12.2002L9.43457 52.9395H70.5658Z" fill="#FFB000"/>
<path d="M79.9109 20.9212L70.5656 52.9383L67.8 62.404H27.875C47.0766 53.8602 56 40.9977 56.625 27.4212L76.9969 18.3743C77.3686 18.2096 77.7796 18.1546 78.1816 18.2156C78.5836 18.2766 78.9597 18.4511 79.2659 18.7187C79.572 18.9863 79.7953 19.3357 79.9096 19.7259C80.0239 20.116 80.0243 20.5307 79.9109 20.9212Z" fill="#D39F0A"/>
<path d="M76.3796 65.5594C76.3792 68.0694 75.382 70.4766 73.6073 72.2516C71.8325 74.0266 69.4256 75.0242 66.9155 75.025H13.0843C10.5738 75.025 8.16622 74.0277 6.39107 72.2526C4.61592 70.4774 3.61865 68.0698 3.61865 65.5594C3.61865 63.0489 4.61592 60.6413 6.39107 58.8662C8.16622 57.091 10.5738 56.0938 13.0843 56.0938H66.9155C67.3493 56.0944 67.7825 56.1236 68.2124 56.1812C70.4761 56.4947 72.55 57.6166 74.0511 59.3397C75.5523 61.0629 76.3793 63.2709 76.3796 65.5562V65.5594Z" fill="#FFB000"/>
<path d="M76.192 63.6828C75.7589 65.8238 74.5985 67.749 72.9077 69.132C71.2169 70.5149 69.0998 71.2704 66.9154 71.2703H13.0842C10.9 71.2698 8.78317 70.5141 7.09249 69.1313C5.40181 67.7484 4.24128 65.8235 3.80762 63.6828C4.24096 61.5418 5.40135 59.6166 7.09206 58.2334C8.78277 56.8503 10.8998 56.0943 13.0842 56.0938H66.9154C69.1 56.0937 71.2173 56.8495 72.9081 58.2327C74.599 59.616 75.7592 61.5416 76.192 63.6828Z" fill="#FFB000"/>
<path d="M76.3798 65.5594C76.3794 68.0694 75.3822 70.4766 73.6075 72.2516C71.8327 74.0266 69.4258 75.0242 66.9157 75.025H13.0845C11.4625 75.0255 9.86762 74.609 8.45299 73.8155C7.03836 73.022 5.85149 71.8781 5.00635 70.4937C6.46729 70.5234 8.00322 70.5625 9.62353 70.6172C73.2095 72.7422 66.9157 56.0938 66.9157 56.0938L68.2126 56.1812C70.4763 56.4947 72.5502 57.6166 74.0513 59.3397C75.5524 61.0629 76.3795 63.2709 76.3798 65.5562V65.5594Z" fill="#D39F0A"/>
<path d="M39.3355 10.9805L27.8745 27.1664" stroke="#FFCC29" stroke-width="2.72992" stroke-miterlimit="10" stroke-linecap="round"/>
<path d="M3.80762 21.7227L19.3795 28.6445" stroke="#FFCC29" stroke-width="2.72992" stroke-miterlimit="10" stroke-linecap="round"/>
<path d="M37.4263 58.6738H45.1669" stroke="#FFCC29" stroke-width="2.72992" stroke-miterlimit="10" stroke-linecap="round"/>
<path d="M11.8979 58.6738H30.8901" stroke="#FFCC29" stroke-width="2.72992" stroke-miterlimit="10" stroke-linecap="round"/>
</svg>
