<svg width="80" height="80" viewBox="0 0 80 80" fill="none" xmlns="http://www.w3.org/2000/svg">
<path d="M40 5C26.1925 5 15 16.1925 15 30C15 40.5925 30.0738 62.9738 37.9888 73.6613C38.9913 75.015 41.0088 75.015 42.0113 73.6625C49.91 63 65 40.6275 65 30C65 16.1925 53.8075 5 40 5Z" fill="#D39F0A"/>
<path d="M40 48.75C49.665 48.75 57.5 40.915 57.5 31.25C57.5 21.585 49.665 13.75 40 13.75C30.335 13.75 22.5 21.585 22.5 31.25C22.5 40.915 30.335 48.75 40 48.75Z" fill="#D39F0A"/>
<path d="M40 47.5C49.665 47.5 57.5 39.665 57.5 30C57.5 20.335 49.665 12.5 40 12.5C30.335 12.5 22.5 20.335 22.5 30C22.5 39.665 30.335 47.5 40 47.5Z" fill="#FCC522"/>
<path d="M50.4787 21.0701C51.9462 22.5376 51.9462 24.9063 50.4787 26.3738L39.2025 37.6501C37.735 39.1176 35.3662 39.1176 33.8987 37.6501L28.595 32.3463C27.1325 30.8838 27.135 28.5038 28.595 27.0426C30.0625 25.5751 32.4312 25.5751 33.8987 27.0426L36.55 29.6938L45.1737 21.0701C46.6375 19.6088 49.0175 19.6101 50.4787 21.0701Z" fill="white"/>
</svg>
