<svg width="80" height="80" viewBox="0 0 80 80" fill="none" xmlns="http://www.w3.org/2000/svg">
<g clip-path="url(#clip0_30517_130949)">
<path d="M26.0133 11.8413L20.9508 13.1034L18.6367 3.82235C18.2881 2.42438 19.1388 1.0086 20.5369 0.660159C21.9348 0.311565 23.3506 1.16219 23.6991 2.56032L26.0133 11.8413Z" fill="#FFB000"/>
<path d="M26.0132 11.8414L23.6993 2.56031C23.3507 1.16234 21.9348 0.311556 20.5371 0.66015L23.4823 12.4725L26.0132 11.8414Z" fill="#FFB000"/>
<path d="M40.0623 78.9721C38.6644 79.3207 37.2486 78.4701 36.9001 77.072L26.1714 34.0415L31.2339 32.7793L41.9626 75.8098C42.3109 77.2077 41.4601 78.6237 40.0623 78.9721Z" fill="#FFB000"/>
<path d="M40.0623 78.972C41.4603 78.6234 42.3111 77.2076 41.9625 75.8098L31.2337 32.7793L28.7026 33.4104L40.0623 78.972Z" fill="#FFB000"/>
<path d="M54.6456 29.6317L4.02136 42.2536C2.62339 42.6022 1.20761 41.7516 0.859172 40.3535C-2.97489 24.9761 6.38292 9.40222 21.7603 5.56816C37.1376 1.73409 52.7115 11.0919 56.5457 26.4694C56.8943 27.8672 56.0435 29.2832 54.6456 29.6317Z" fill="#F9BC35"/>
<path d="M54.6454 29.6316C56.0434 29.283 56.8942 27.8672 56.5456 26.4694C52.7115 11.0919 37.1378 1.7341 21.7603 5.56817L29.3335 35.9425L54.6454 29.6316Z" fill="#D39F0A"/>
<path d="M11.7781 79.1233C10.5009 78.4575 10.0051 76.8822 10.6707 75.6044L16.1056 65.1696C16.7714 63.8932 18.3457 63.3957 19.6245 64.0605C20.9017 64.7263 21.3975 66.3016 20.7318 67.5794L15.297 78.0143C14.6287 79.296 13.0553 79.7872 11.7781 79.1233Z" fill="#FFB000"/>
<path d="M64.8015 78.0128L59.3666 67.5779C58.7008 66.2998 59.1968 64.7247 60.474 64.059C61.7529 63.3942 63.3272 63.8892 63.9929 65.1681L69.4277 75.6029C70.0935 76.8811 69.5976 78.4562 68.3204 79.1218C67.0369 79.7889 65.4644 79.2853 64.8015 78.0128Z" fill="#FFB000"/>
<path d="M79.681 65.1766L72.1877 49.6918C71.5576 48.3943 69.9952 47.8524 68.7027 48.4799C67.4052 49.1074 66.8634 50.6674 67.4901 51.9641L73.1712 63.7041H59.1309V68.9041H77.3323C78.2307 68.9041 79.0646 68.4596 79.5418 67.6987C80.0188 66.9379 80.0716 65.9852 79.681 65.1766Z" fill="#FFB000"/>
<path d="M77.8382 38.4262C75.5285 36.8787 72.0449 37.512 70.672 40.6181L70.6634 40.6376L62.376 58.4867H8.32227C5.94586 58.4867 3.47852 60.2439 3.47852 63.6979C3.47852 67.0531 5.83336 68.904 8.32227 68.904H65.0812C66.0493 68.904 66.9379 68.3853 67.3891 67.5287L79.6495 44.2601C80.5449 42.0242 79.6477 39.6389 77.8382 38.4262Z" fill="#D39F0A"/>
<path d="M77.838 38.4262C75.5283 36.8787 72.0447 37.512 70.6718 40.6181L70.6632 40.6376L62.376 58.4867H41.7393V68.904H65.0811C66.0491 68.904 66.9377 68.3853 67.3889 67.5287L79.6493 44.2601C80.5447 42.0242 79.6477 39.6389 77.838 38.4262Z" fill="#D39F0A"/>
</g>
<defs>
<clipPath id="clip0_30517_130949">
<rect width="80" height="80" fill="white"/>
</clipPath>
</defs>
</svg>
