<svg width="80" height="80" viewBox="0 0 80 80" fill="none" xmlns="http://www.w3.org/2000/svg">
<path d="M43.7665 18.8926C41.5047 21.4834 42.8954 25.5512 46.2701 26.2148H33.73C37.1047 25.5512 38.4954 21.4834 36.2336 18.8926H43.7665Z" fill="#D39F0A"/>
<path d="M40 25.6035C22.0506 25.6035 7.5 40.1543 7.5 58.1035V60.6035L40 63.1035L72.5 60.6035V58.1035C72.5 40.1541 57.9492 25.6035 40 25.6035Z" fill="#D39F0A"/>
<path d="M61.3152 33.5684C66.2767 39.2745 69.2808 46.7282 69.2808 54.8835V56.5787C69.2808 57.0232 68.9205 57.3835 68.4759 57.3835H7.50797C7.50281 57.6226 7.5 57.8624 7.5 58.1027V60.6027L40 63.1027L72.5 60.6027V58.1027C72.5 48.3088 68.1678 39.527 61.3152 33.5684Z" fill="#D39F0A"/>
<path d="M39.4062 30.6095C25.5288 30.905 14.1485 41.5311 12.664 55.0892C12.612 55.5644 12.9874 55.9792 13.4654 55.9792H19.2657C19.6771 55.9792 20.0226 55.6687 20.0648 55.2595C21.2187 44.0769 29.1015 34.8608 39.584 31.74C39.8299 31.6667 40.0001 31.4433 40.0001 31.1867C40.0001 30.8615 39.7313 30.6026 39.4062 30.6095Z" fill="white"/>
<path d="M75 65.6035L40 68.1035L5 65.6035V63.018C5 61.6846 6.08094 60.6035 7.41453 60.6035H72.5856C73.9191 60.6035 75.0002 61.6845 75.0002 63.018V65.6035H75Z" fill="#FFB000"/>
<path d="M75.0001 63.018C75.0001 61.6846 73.9192 60.6035 72.5856 60.6035H69.3662C70.6996 60.6035 71.7807 61.6845 71.7807 63.018V65.8335L75.0001 65.6035V63.018Z" fill="#FFB000"/>
<path d="M74.3662 73.1035H5.63375C2.52234 73.1035 0 70.5812 0 67.4698V66.4084C0 65.9638 0.360312 65.6035 0.804844 65.6035H79.1952C79.6397 65.6035 80 65.9638 80 66.4084V67.4698C80 70.5812 77.4777 73.1035 74.3662 73.1035Z" fill="#D39F0A"/>
<path d="M79.195 65.6035H76.6169C76.0109 68.0615 73.7917 69.8841 71.1467 69.8841H2.41438C1.69656 69.8841 1.01031 69.7498 0.378906 69.5051C1.195 71.6105 3.24 73.1035 5.63359 73.1035H74.3659C77.4773 73.1035 79.9997 70.5812 79.9997 67.4698V66.4084C79.9998 65.9638 79.6395 65.6035 79.195 65.6035Z" fill="#D39F0A"/>
<path d="M40 20.6035C42.7614 20.6035 45 18.3649 45 15.6035C45 12.8421 42.7614 10.6035 40 10.6035C37.2386 10.6035 35 12.8421 35 15.6035C35 18.3649 37.2386 20.6035 40 20.6035Z" fill="#D39F0A"/>
<path d="M42.1166 11.0723C42.4173 11.7151 42.5855 12.4324 42.5855 13.189C42.5855 15.9504 40.3469 18.189 37.5855 18.189C36.8289 18.189 36.1116 18.021 35.4688 17.7201C36.2658 19.4234 37.995 20.6034 39.9998 20.6034C42.7612 20.6034 44.9998 18.3648 44.9998 15.6034C44.9998 13.5987 43.8198 11.8693 42.1166 11.0723Z" fill="#D39F0A"/>
<path d="M18.6108 28.0614C18.3323 28.0614 18.0528 27.9658 17.825 27.7701C17.3191 27.3358 17.2611 26.5737 17.6953 26.0678C19.1695 24.3506 19.1695 21.8576 17.6953 20.1404C15.4388 17.5117 15.4387 13.6959 17.6956 11.0673C18.13 10.5615 18.892 10.5034 19.398 10.9378C19.9038 11.3722 19.9619 12.1342 19.5275 12.6401C18.0531 14.3573 18.053 16.8503 19.5273 18.5678C21.7838 21.1964 21.7838 25.012 19.5273 27.6406C19.2886 27.9186 18.9506 28.0614 18.6108 28.0614Z" fill="white"/>
<path d="M10.7636 28.0607C10.4852 28.0607 10.2056 27.9651 9.97783 27.7694C9.47189 27.3351 9.41393 26.573 9.84814 26.0671C11.7886 23.8068 11.7886 20.5255 9.84814 18.2651C7.12533 15.0932 7.12549 10.4891 9.84861 7.31725C10.283 6.81147 11.0452 6.7535 11.551 7.18772C12.0567 7.62209 12.1149 8.38413 11.6805 8.89006C9.73971 11.1504 9.73971 14.4318 11.6802 16.6923C14.4028 19.864 14.4028 24.468 11.6802 27.6396C11.4414 27.9179 11.1035 28.0607 10.7636 28.0607Z" fill="white"/>
<path d="M61.3897 28.0615C61.0497 28.0615 60.7119 27.9189 60.4732 27.6406C58.2166 25.0122 58.2166 21.1964 60.4732 18.5678C61.9474 16.8504 61.9474 14.3575 60.4729 12.6401C60.0385 12.1342 60.0966 11.372 60.6024 10.9378C61.1085 10.5034 61.8705 10.5615 62.3047 11.0673C64.5616 13.6959 64.5618 17.5117 62.3052 20.1404C60.831 21.8578 60.831 24.3506 62.3052 26.0678C62.7396 26.5736 62.6815 27.3359 62.1757 27.7701C61.9477 27.9658 61.668 28.0615 61.3897 28.0615Z" fill="white"/>
<path d="M69.2364 28.0606C68.8964 28.0606 68.5586 27.9179 68.3198 27.6397C65.5972 24.4681 65.5972 19.864 68.3198 16.6923C70.2604 14.4318 70.2603 11.1504 68.3197 8.89013C67.8853 8.38419 67.9434 7.622 68.4492 7.18778C68.9551 6.75341 69.7173 6.81153 70.1515 7.31731C72.8747 10.489 72.8748 15.0933 70.152 18.2651C68.2115 20.5256 68.2115 23.8067 70.152 26.0672C70.5862 26.5731 70.5283 27.3353 70.0223 27.7695C69.7945 27.9648 69.5147 28.0606 69.2364 28.0606Z" fill="white"/>
</svg>
