<svg width="80" height="80" viewBox="0 0 80 80" fill="none" xmlns="http://www.w3.org/2000/svg">
<path d="M22.5 15.625H12.5C12.1548 15.625 11.875 15.9048 11.875 16.25V18.75C11.875 19.0952 12.1548 19.375 12.5 19.375H22.5C22.8452 19.375 23.125 19.0952 23.125 18.75V16.25C23.125 15.9048 22.8452 15.625 22.5 15.625Z" fill="#D39F0A"/>
<path d="M67.5 15.625H57.5C57.1548 15.625 56.875 15.9048 56.875 16.25V18.75C56.875 19.0952 57.1548 19.375 57.5 19.375H67.5C67.8452 19.375 68.125 19.0952 68.125 18.75V16.25C68.125 15.9048 67.8452 15.625 67.5 15.625Z" fill="#D39F0A"/>
<path d="M47.5 5.625H32.5C29.3985 5.625 26.875 8.1485 26.875 11.25V18.75C26.875 19.0952 27.1548 19.375 27.5 19.375H31.25C31.5952 19.375 31.875 19.0952 31.875 18.75V11.25C31.875 10.9171 32.1671 10.625 32.5 10.625H47.5C47.8329 10.625 48.125 10.9171 48.125 11.25V18.75C48.125 19.0952 48.4048 19.375 48.75 19.375H52.5C52.8452 19.375 53.125 19.0952 53.125 18.75V11.25C53.125 8.1485 50.6015 5.625 47.5 5.625Z" fill="#D39F0A"/>
<path d="M70 18.125H10C5.51971 18.125 1.875 21.7697 1.875 26.25V66.25C1.875 70.7303 5.51971 74.375 10 74.375H70C74.4803 74.375 78.125 70.7303 78.125 66.25V26.25C78.125 21.7697 74.4803 18.125 70 18.125Z" fill="#D39F0A"/>
<path d="M40 25.625C28.6273 25.625 19.375 34.8773 19.375 46.25C19.375 57.6227 28.6273 66.875 40 66.875C51.3727 66.875 60.625 57.6227 60.625 46.25C60.625 34.8773 51.3727 25.625 40 25.625Z" fill="white"/>
<path d="M52.5 41.875H44.375V33.75C44.375 33.4048 44.0952 33.125 43.75 33.125H36.25C35.9048 33.125 35.625 33.4048 35.625 33.75V41.875H27.5C27.1548 41.875 26.875 42.1548 26.875 42.5V50C26.875 50.3452 27.1548 50.625 27.5 50.625H35.625V58.75C35.625 59.0952 35.9048 59.375 36.25 59.375H43.75C44.0952 59.375 44.375 59.0952 44.375 58.75V50.625H52.5C52.8452 50.625 53.125 50.3452 53.125 50V42.5C53.125 42.1548 52.8452 41.875 52.5 41.875Z" fill="#D39F0A"/>
<path d="M5 35.625C4.65485 35.625 4.375 35.3452 4.375 35V26.25C4.375 25.9048 4.65485 25.625 5 25.625C5.34515 25.625 5.625 25.9048 5.625 26.25V35C5.625 35.3452 5.34515 35.625 5 35.625Z" fill="white"/>
<path d="M5 41.875C4.65485 41.875 4.375 41.5952 4.375 41.25V38.75C4.375 38.4048 4.65485 38.125 5 38.125C5.34515 38.125 5.625 38.4048 5.625 38.75V41.25C5.625 41.5952 5.34515 41.875 5 41.875Z" fill="white"/>
</svg>
