<svg width="80" height="80" viewBox="0 0 80 80" fill="none" xmlns="http://www.w3.org/2000/svg">
<path d="M70.125 17.125V37.25C70.125 55.5 57.75 71.5 40 76C22.25 71.5 9.875 55.5 9.875 37.25V17.125C23.75 15.5 31.75 10.25 40 4C48.25 10.25 56.25 15.5 70.125 17.125Z" fill="#D39F0A"/>
<path d="M40 68C26.625 63.75 17.5 51.375 17.5 37.25V23.625C26.875 21.625 33.75 17.75 40 13.5C46.375 17.875 53.125 21.625 62.5 23.625V37.25C62.5 51.375 53.375 63.75 40 68Z" fill="#FCC522"/>
<path d="M35 52.25L27.5 44.875L31.375 41.125L35 44.75L48.625 31.125L52.5 34.875L35 52.25Z" fill="white"/>
</svg>
