<svg width="80" height="80" viewBox="0 0 80 80" fill="none" xmlns="http://www.w3.org/2000/svg">
<path d="M33.3335 53.334H46.6668V68.334H33.3335V53.334Z" fill="#D39F0A"/>
<path d="M71.6668 10H8.3335C5.57207 10 3.3335 12.2386 3.3335 15V53.3333C3.3335 56.0947 5.57207 58.3333 8.3335 58.3333H71.6668C74.4282 58.3333 76.6668 56.0947 76.6668 53.3333V15C76.6668 12.2386 74.4282 10 71.6668 10Z" fill="#D39F0A"/>
<path d="M5.11834 11.1758C4.55956 11.644 4.11018 12.229 3.80181 12.8896C3.49345 13.5502 3.33359 14.2704 3.3335 14.9994V53.3327C3.33494 54.6583 3.86219 55.9292 4.79956 56.8666C5.73693 57.804 7.00786 58.3312 8.3335 58.3327H71.6669C72.8441 58.3332 73.9833 57.9164 74.8821 57.1562L5.11834 11.1758Z" fill="#D39F0A"/>
<path d="M70.8332 13.334H9.1665C7.78579 13.334 6.6665 14.4533 6.6665 15.834V49.1673C6.6665 50.548 7.78579 51.6673 9.1665 51.6673H70.8332C72.2139 51.6673 73.3332 50.548 73.3332 49.1673V15.834C73.3332 14.4533 72.2139 13.334 70.8332 13.334Z" fill="white"/>
<path d="M8.5301 13.4258C7.99714 13.565 7.52526 13.8767 7.18813 14.3123C6.85099 14.7479 6.66758 15.2829 6.6665 15.8338V49.1672C6.6665 49.8302 6.9299 50.4661 7.39874 50.935C7.86758 51.4038 8.50346 51.6672 9.1665 51.6672H66.6665L8.5301 13.4258Z" fill="white"/>
<path d="M65.8333 65H14.1667C13.0616 65 12.0018 65.439 11.2204 66.2204C10.439 67.0018 10 68.0616 10 69.1667C10 69.3877 10.0878 69.5997 10.2441 69.7559C10.4003 69.9122 10.6123 70 10.8333 70H69.1667C69.3877 70 69.5997 69.9122 69.7559 69.7559C69.9122 69.5997 70 69.3877 70 69.1667C70 68.0616 69.561 67.0018 68.7796 66.2204C67.9982 65.439 66.9384 65 65.8333 65Z" fill="#D39F0A"/>
<path d="M40.0002 56.6674C40.9207 56.6674 41.6669 55.9212 41.6669 55.0007C41.6669 54.0802 40.9207 53.334 40.0002 53.334C39.0797 53.334 38.3335 54.0802 38.3335 55.0007C38.3335 55.9212 39.0797 56.6674 40.0002 56.6674Z" fill="#EAEFF0"/>
</svg>
