<svg width="80" height="80" viewBox="0 0 80 80" fill="none" xmlns="http://www.w3.org/2000/svg">
<g clip-path="url(#clip0_30517_130962)">
<path d="M58.1942 0.120234C55.8831 -0.0400781 53.572 -0.0400781 51.2611 0.120234C46.5067 0.450078 42.7439 4.25398 42.4129 9.0082C42.1306 13.0637 42.1306 17.1193 42.4129 21.1748C42.7439 25.929 46.5068 29.733 51.2611 30.0627C53.5722 30.223 55.8832 30.223 58.1942 30.0627C62.9486 29.7329 66.7114 25.929 67.0423 21.1748C67.3247 17.1193 67.3247 13.0637 67.0423 9.0082C66.7114 4.25414 62.9486 0.450078 58.1942 0.120234Z" fill="white"/>
<path d="M62.815 76.5542C61.3897 78.711 58.9947 80.0008 56.4085 80.0008H34.5391C31.9513 80.0008 29.5579 78.711 28.1325 76.5542C26.7072 74.3958 26.4624 71.6872 27.4779 69.3085L30.428 62.3974L33.37 55.5075C34.0966 53.8063 36.0639 53.0161 37.7652 53.7427C39.468 54.4692 40.2583 56.4366 39.5318 58.1378L37.6558 62.533L33.6394 71.9388C33.4599 72.36 33.6133 72.698 33.7227 72.8613C33.8305 73.0261 34.0802 73.3005 34.5389 73.3005H56.4083C56.8655 73.3005 57.1154 73.0263 57.2246 72.8613C57.3324 72.698 57.4874 72.36 57.3078 71.9388L53.2914 62.533L51.4155 58.1378C50.6889 56.4366 51.4793 54.4692 53.1804 53.7427C54.8816 53.0161 56.8489 53.8064 57.5755 55.5075L60.5747 62.5328L63.4679 69.3083C64.4836 71.6874 64.2403 74.396 62.815 76.5542Z" fill="#D39F0A"/>
<path d="M39.5315 58.1377L37.6555 62.5328H31.6343C31.2212 62.5328 30.8163 62.4855 30.4277 62.3974L33.3698 55.5075C34.0963 53.8063 36.0637 53.0161 37.7649 53.7427C39.4677 54.4691 40.258 56.4363 39.5315 58.1377Z" fill="#FCC522"/>
<path d="M60.5747 62.533H53.2914L51.4155 58.1378C50.6889 56.4366 51.4793 54.4692 53.1803 53.7427C54.8816 53.0161 56.8489 53.8064 57.5755 55.5075L60.5747 62.533Z" fill="#FCC522"/>
<path d="M57.3072 71.9395C57.4869 72.3604 57.3322 72.6984 57.2239 72.8623C57.1156 73.0262 56.8656 73.3014 56.4078 73.3014H59.0811C59.5389 73.3014 59.7889 73.0262 59.8972 72.8623C60.0055 72.6984 60.1601 72.3604 59.9805 71.9395L54.0881 58.1392C53.3653 56.4459 54.1453 54.4895 55.8298 53.7548C55.0147 53.4004 54.0623 53.3665 53.1801 53.7433C51.4789 54.4697 50.6886 56.4378 51.4148 58.1392L57.3072 71.9395Z" fill="#FCC522"/>
<path d="M30.8051 76.5535C29.3798 74.3953 29.1355 71.6868 30.1509 69.3082L36.0433 55.5079C36.3931 54.6885 37.0322 54.0834 37.7895 53.7542C37.7814 53.7506 37.7741 53.746 37.7658 53.7426C36.0636 53.016 34.0962 53.8067 33.3698 55.5079L27.4775 69.3082C26.462 71.6868 26.7066 74.3953 28.1317 76.5535C29.5567 78.7117 31.9517 80.0001 34.5381 80.0001H37.2116C34.6251 80.0003 32.2303 78.7117 30.8051 76.5535Z" fill="#FCC522"/>
<path d="M61.9145 48.1353H33.7922L28.1158 28.2803L29.6244 27.8491C32.5767 27.005 34.2859 23.9275 33.4419 20.9752L28.5987 4.035C27.7547 1.08265 24.677 -0.626408 21.7247 0.217498L16.7797 1.63125C13.8273 2.47531 12.1181 5.55297 12.9622 8.50531L19.3336 30.7911L26.4139 55.5566C27.0802 57.8869 29.2103 59.4934 31.6341 59.4934H61.9144C64.147 59.4934 65.957 57.6834 65.957 55.4508V52.178C65.9572 49.9453 64.1472 48.1353 61.9145 48.1353Z" fill="#D39F0A"/>
<path d="M35.0862 59.4913H31.6343C29.2109 59.4913 27.0804 57.8852 26.4138 55.5555L19.3327 30.7899L12.9616 8.50288C12.1176 5.55022 13.8276 2.4735 16.7785 1.62944L21.7243 0.215847C22.8313 -0.100716 23.9568 -0.0588406 24.9735 0.274441L20.2321 1.62928C17.2795 2.47335 15.571 5.55007 16.4152 8.50272L22.7863 30.7896L29.8674 55.5552C30.5323 57.8851 32.6626 59.4913 35.0862 59.4913Z" fill="#FFB000"/>
<path d="M56.3776 41.451H29.644C27.7983 41.451 26.3022 39.9549 26.3022 38.1093C26.3022 36.2637 27.7983 34.7676 29.644 34.7676H56.3774C58.223 34.7676 59.7191 36.2637 59.7191 38.1093C59.7193 39.9549 58.223 41.451 56.3776 41.451Z" fill="#D39F0A"/>
<path d="M59.7193 38.1091C59.7193 39.0316 59.3454 39.8675 58.7414 40.4716C58.1373 41.0773 57.3014 41.4511 56.3789 41.4511H29.6442C27.7993 41.4511 26.3037 39.9539 26.3037 38.1091C26.3037 37.6878 26.3822 37.2845 26.5242 36.9141C27.0042 38.1695 28.2204 39.0609 29.6442 39.0609H56.3789C57.3014 39.0609 58.1373 38.687 58.7414 38.083C59.0695 37.7531 59.3307 37.3564 59.4989 36.9141C59.641 37.2847 59.7193 37.688 59.7193 38.1091Z" fill="#FCC522"/>
<path d="M54.7275 25.4481C53.6861 25.4481 52.63 25.4116 51.5884 25.3392C49.2168 25.1747 47.3026 23.243 47.1357 20.8458C46.8701 17.0275 46.8701 13.1552 47.1357 9.33672C47.3026 6.93969 49.2168 5.00781 51.5884 4.84328C52.63 4.77094 53.6859 4.73438 54.7275 4.73438C55.7686 4.73438 56.8246 4.77094 57.8664 4.84328C60.2379 5.00781 62.1521 6.93953 62.319 9.33687C62.5846 13.1552 62.5846 17.0273 62.319 20.8459C62.1521 23.243 60.2379 25.1748 57.8664 25.3392C56.8246 25.4114 55.7686 25.4481 54.7275 25.4481Z" fill="#CACED2"/>
<path d="M54.7275 26.883C53.6573 26.883 52.5726 26.8453 51.5036 26.7711C48.5262 26.5647 46.1232 24.1442 45.9142 21.1411C45.6445 17.2663 45.6445 13.3369 45.9142 9.46203C46.1232 6.45891 48.5262 4.03859 51.5037 3.83203C53.6414 3.68359 55.8129 3.68359 57.9511 3.83203C60.9284 4.03844 63.3314 6.45891 63.5404 9.46203C63.81 13.3369 63.81 17.2663 63.5404 21.1411C63.3314 24.1442 60.9284 26.5645 57.9509 26.7709C56.882 26.8453 55.7975 26.883 54.7275 26.883ZM54.7275 6.16922C53.7136 6.16922 52.6861 6.20484 51.6732 6.27516C49.9076 6.39766 48.482 7.84078 48.3571 9.63203C48.0956 13.3941 48.0956 17.2091 48.3571 20.9711C48.482 22.7623 49.9075 24.2056 51.6729 24.328C53.6986 24.4686 55.7557 24.4688 57.7814 24.328C59.547 24.2055 60.9726 22.7623 61.0975 20.9711C61.359 17.2091 61.359 13.3941 61.0975 9.63203C60.9726 7.84078 59.5471 6.3975 57.7817 6.275C56.7687 6.20484 55.7411 6.16922 54.7275 6.16922Z" fill="#EDEDED"/>
</g>
<defs>
<clipPath id="clip0_30517_130962">
<rect width="80" height="80" fill="white"/>
</clipPath>
</defs>
</svg>
