<svg width="80" height="80" viewBox="0 0 80 80" fill="none" xmlns="http://www.w3.org/2000/svg">
<path fill-rule="evenodd" clip-rule="evenodd" d="M50.3293 7.33764L54.6313 11.6397C55.1607 12.1691 55.2383 12.9898 54.9249 13.6698C53.384 17.0126 53.8917 20.9784 56.5084 23.595C59.125 26.2117 63.0908 26.7194 66.4337 25.1785C67.1136 24.8651 67.9344 24.9428 68.4637 25.4721L73.3278 30.3362C74.5775 31.5859 74.5775 33.6121 73.3279 34.8617L34.8613 73.3284C33.6116 74.5781 31.5854 74.578 30.3357 73.3284L25.5111 68.5037C24.9747 67.9673 24.9026 67.1331 25.2301 66.4489C26.842 63.0803 26.3546 59.0479 23.7053 56.3985C21.0559 53.7493 17.0236 53.2618 13.655 54.8738C12.9707 55.2013 12.1365 55.1292 11.6001 54.5928L7.33716 50.3297C6.08748 49.0801 6.08748 47.0539 7.33716 45.8042L36.1755 16.9659L38.5132 19.3036L40.2102 17.6065L37.8725 15.2689L45.8037 7.33764C47.0534 6.08797 49.0796 6.08797 50.3293 7.33764ZM62.549 39.9453L64.8869 42.2831L63.1897 43.9801L60.852 41.6424L62.549 39.9453ZM55.7954 33.1917L60.471 37.8673L58.774 39.5644L54.0984 34.8888L55.7954 33.1917ZM49.0418 26.4381L53.7174 31.1137L52.0204 32.8108L47.3448 28.1352L49.0418 26.4381ZM42.2882 19.6845L46.9638 24.3601L45.2668 26.0572L40.5912 21.3816L42.2882 19.6845ZM34.4525 37.9116L25.6393 42.8595C25.3878 43.0006 25.2318 43.2661 25.2309 43.5545L25.2242 45.5871C25.2223 46.1584 25.8025 46.5474 26.3303 46.3289L33.7548 43.2544C34.2816 43.0362 34.8609 43.4234 34.8609 43.9935V49.8081C34.8609 50.0879 34.7147 50.3473 34.4753 50.4923L32.0013 51.9906C31.7728 52.129 31.6284 52.3725 31.6165 52.6393L31.5157 54.9094C31.489 55.5073 32.1045 55.9217 32.6485 55.6721L36.7384 53.7956C36.9525 53.6973 37.199 53.6985 37.4122 53.7986L41.3756 55.6612C41.9053 55.9101 42.5143 55.5245 42.5158 54.9393L42.522 52.6473C42.5228 52.3549 42.364 52.0853 42.1077 51.9443L40.1149 50.8473C39.8594 50.7067 39.7007 50.4381 39.7007 50.1465V43.9781C39.7007 43.4121 40.2724 43.025 40.7979 43.2353L48.5844 46.3509C49.1089 46.5608 49.6799 46.1755 49.6816 45.6105L49.6876 43.5576C49.6884 43.2676 49.5322 42.9998 49.2794 42.8578L40.1089 37.7057C39.8568 37.564 39.7007 37.2973 39.7007 37.0081V31.8442C39.7007 31.8434 39.7006 29.1029 37.1623 29.1032C34.7671 29.1033 34.8429 31.8942 34.8592 32.2096C34.8602 32.2297 34.8609 32.2485 34.8609 32.2687V37.214C34.8609 37.5033 34.7048 37.77 34.4525 37.9116Z" fill="#D39F0A"/>
</svg>
