<svg width="80" height="80" viewBox="0 0 80 80" fill="none" xmlns="http://www.w3.org/2000/svg">
<path d="M40 70.5469C43.8487 70.5469 46.9688 67.4269 46.9688 63.5781C46.9688 59.7294 43.8487 56.6094 40 56.6094C36.1513 56.6094 33.0312 59.7294 33.0312 63.5781C33.0312 67.4269 36.1513 70.5469 40 70.5469Z" fill="#D39F0A"/>
<path d="M40.0001 9.45316C25.4532 9.43753 11.5157 15.2813 1.35948 25.6875C-0.453025 27.5469 -0.4374 30.5313 1.40635 32.375L1.42198 32.3907C3.28135 34.25 6.29698 34.2344 8.15635 32.375C8.17198 32.3594 8.1876 32.3438 8.1876 32.3438C25.3907 14.7813 53.5939 14.4844 71.1564 31.6875C71.3751 31.9063 71.5939 32.125 71.8126 32.3438C73.6407 34.2344 76.6564 34.2657 78.547 32.4375C78.5626 32.4219 78.5782 32.4063 78.5782 32.4063L78.5939 32.3907C80.4376 30.5469 80.4532 27.5625 78.6407 25.7032C68.4845 15.2813 54.547 9.43753 40.0001 9.45316Z" fill="#D39F0A"/>
<path d="M40.0002 25.3125C29.6564 25.3125 19.7658 29.5 12.5627 36.9219C10.7502 38.7813 10.7814 41.7657 12.6095 43.5938C14.4533 45.4532 17.4533 45.4688 19.297 43.625C19.3127 43.6094 19.3283 43.5938 19.3439 43.5782C30.3595 32.1719 48.5314 31.8594 59.9377 42.8907C60.172 43.125 60.4064 43.3438 60.6252 43.5782C62.4533 45.4375 65.4533 45.4688 67.3127 43.6407C67.3283 43.625 67.3439 43.6094 67.3595 43.5938C69.2033 41.75 69.2189 38.7813 67.4064 36.9219C60.2345 29.4844 50.3439 25.2969 40.0002 25.3125Z" fill="#D39F0A"/>
<path d="M40.0003 41.1719C33.8597 41.1719 27.9691 43.6875 23.7503 48.1563C21.9691 50.0313 22.0003 52.9687 23.8284 54.8125C25.7034 56.6719 28.7191 56.6563 30.5784 54.7813L30.6722 54.6875C35.5784 49.5312 43.7347 49.3438 48.8753 54.25C49.0316 54.3906 49.1722 54.5469 49.3128 54.6875C51.1097 56.6094 54.1409 56.7187 56.0628 54.9062L56.1566 54.8125C57.9847 52.9844 58.0159 50.0313 56.2347 48.1563C52.0159 43.6875 46.1409 41.1719 40.0003 41.1719Z" fill="#D39F0A"/>
</svg>
